<svg width="24" height="24" viewBox="0 0 24 24" fill="none" xmlns="http://www.w3.org/2000/svg">
<path d="M19.125 6V15.75C19.125 16.0484 19.0065 16.3345 18.7955 16.5455C18.5845 16.7565 18.2984 16.875 18 16.875C17.7016 16.875 17.4155 16.7565 17.2045 16.5455C16.9935 16.3345 16.875 16.0484 16.875 15.75V8.71875L6.79594 18.7959C6.5846 19.0073 6.29795 19.126 5.99907 19.126C5.70018 19.126 5.41354 19.0073 5.20219 18.7959C4.99085 18.5846 4.87212 18.2979 4.87212 17.9991C4.87212 17.7002 4.99085 17.4135 5.20219 17.2022L15.2813 7.125H8.25001C7.95164 7.125 7.66549 7.00647 7.45451 6.7955C7.24353 6.58452 7.12501 6.29837 7.12501 6C7.12501 5.70163 7.24353 5.41548 7.45451 5.2045C7.66549 4.99353 7.95164 4.875 8.25001 4.875H18C18.2984 4.875 18.5845 4.99353 18.7955 5.2045C19.0065 5.41548 19.125 5.70163 19.125 6Z" fill="#333333"/>
</svg>
