<svg width="100" height="100" viewBox="0 0 100 100" fill="none" xmlns="http://www.w3.org/2000/svg">
<mask id="mask0_2571_905" style="mask-type:luminance" maskUnits="userSpaceOnUse" x="2" y="2" width="96" height="96">
<path d="M98 2.97968H2V97.0205H98V2.97968Z" fill="white"/>
</mask>
<g mask="url(#mask0_2571_905)">
<path d="M42.5938 70.9485C30.2187 69.4484 21.5 60.5422 21.5 49.0109C21.5 44.3234 23.1875 39.2609 26 35.8859C24.7813 32.7922 24.9688 26.2297 26.375 23.5109C30.125 23.0422 35.1875 25.0109 38.1875 27.7297C41.75 26.6047 45.5 26.0422 50.0937 26.0422C54.6875 26.0422 58.4375 26.6047 61.8125 27.6359C64.7188 25.0109 69.875 23.0422 73.625 23.5109C74.9375 26.0422 75.125 32.6047 73.9062 35.7922C76.9062 39.3547 78.4999 44.136 78.4999 49.0109C78.4999 60.5422 69.7813 69.2609 57.2187 70.8547C60.4062 72.9171 62.5625 77.4172 62.5625 82.5735V92.3234C62.5625 95.1359 64.9063 96.7297 67.7188 95.6047C84.6875 89.1359 98 72.1672 98 51.1672C98 24.6359 76.4375 2.97968 49.9063 2.97968C23.375 2.97968 2 24.6359 2 51.1672C2 71.9797 15.2187 89.2297 33.0312 95.6984C35.5625 96.6359 38 94.9484 38 92.4172V84.9171C36.6875 85.4797 35 85.8547 33.5 85.8547C27.3125 85.8547 23.6562 82.4797 21.0312 76.1984C20 73.6672 18.875 72.1672 16.7188 71.8859C15.5938 71.7922 15.2187 71.3234 15.2187 70.761C15.2187 69.6359 17.0937 68.7922 18.9688 68.7922C21.6875 68.7922 24.0312 70.4797 26.4687 73.9485C28.3438 76.6672 30.3125 77.8859 32.6562 77.8859C35 77.8859 36.5 77.0422 38.6562 74.8859C40.25 73.2921 41.4687 71.8859 42.5938 70.9485Z" fill="black"/>
</g>
</svg>
