<svg width="381" height="396" viewBox="0 0 381 396" fill="none" xmlns="http://www.w3.org/2000/svg">
<path d="M44.056 38.0564L237.701 23.7962C261.481 21.7567 267.599 23.1229 282.545 33.9801L344.359 77.4256C354.558 84.8966 357.958 86.9306 357.958 95.0748V333.358C357.958 348.292 352.518 357.123 333.498 358.474L108.619 372.054C94.3416 372.735 87.5464 370.7 80.0693 361.19L34.5487 302.13C26.3919 291.259 23 283.126 23 273.61V61.8076C23 49.5953 28.4415 39.4087 44.056 38.0564Z" fill="white"/>
<path fill-rule="evenodd" clip-rule="evenodd" d="M42.2191 15.1294L235.875 0.868425C247.597 -0.134207 258.306 -0.694005 268.519 1.62075C279.51 4.11155 287.833 9.40228 295.914 15.2634L357.768 58.7378L357.95 58.8708C358.398 59.1993 358.887 59.5523 359.406 59.9278C363.178 62.654 368.595 66.5699 372.39 70.9645C378.898 78.5004 380.958 86.7978 380.958 95.0748V333.358C380.958 342.967 379.335 355.749 370.12 366.212C360.717 376.888 347.547 380.535 335.127 381.417L335.006 381.425L109.86 395.021L109.715 395.028C101.803 395.406 92.764 395.282 83.9092 392.05C74.2617 388.53 67.4438 382.345 61.9886 375.406L61.92 375.319L16.2408 316.053L16.1515 315.934C6.39474 302.93 0 290.004 0 273.61V61.8076C0 52.6281 2.00788 41.357 9.54377 31.7051C17.5452 21.457 29.2402 16.2534 42.0716 15.1422L42.2191 15.1294ZM237.701 23.7962L44.056 38.0564C28.4415 39.4087 23 49.5953 23 61.8076V273.61C23 283.126 26.3919 291.259 34.5487 302.13L80.0693 361.19C87.5464 370.7 94.3416 372.735 108.619 372.054L333.498 358.474C352.518 357.123 357.958 348.292 357.958 333.358V95.0748C357.958 87.3553 354.904 85.1253 345.899 78.5517C345.404 78.19 344.891 77.8152 344.359 77.4256L282.545 33.9801C267.599 23.1229 261.481 21.7567 237.701 23.7962Z" fill="white"/>
<path fill-rule="evenodd" clip-rule="evenodd" d="M237.701 23.7962L44.056 38.0564C28.4415 39.4087 23 49.5953 23 61.8076V273.61C23 283.126 26.3919 291.259 34.5487 302.13L80.0693 361.19C87.5464 370.7 94.3416 372.735 108.619 372.054L333.498 358.474C352.518 357.123 357.958 348.292 357.958 333.358V95.0748C357.958 87.3553 354.904 85.1253 345.899 78.5517C345.404 78.19 344.891 77.8152 344.359 77.4256L282.545 33.9801C267.599 23.1229 261.481 21.7567 237.701 23.7962ZM113.718 91.1664C95.3581 92.4062 91.1862 92.6879 80.7599 84.2177L54.2457 63.1737C51.5415 60.4524 52.8978 57.0579 59.6871 56.3846L245.855 42.806C261.478 41.4454 269.629 46.8852 275.747 51.6349L307.678 74.7183C309.038 75.3943 312.429 79.4624 308.351 79.4624L116.088 91.007C115.273 91.0614 114.484 91.1147 113.719 91.1663L113.718 91.1664ZM92.3031 331.318V129.024C92.3031 120.201 95.021 116.124 103.169 115.44L323.977 102.546C331.466 101.867 334.857 106.622 334.857 115.44V316.376C334.857 325.208 333.495 332.685 321.261 333.358L109.964 345.584C97.7361 346.257 92.3031 342.19 92.3031 331.318ZM300.894 139.875C302.249 145.992 300.894 152.102 294.768 152.789L284.586 154.817V304.164C275.747 308.915 267.596 311.631 260.804 311.631C249.929 311.631 247.206 308.234 239.06 298.056L172.467 193.513V294.662L193.539 299.417C193.539 299.417 193.539 311.631 176.538 311.631L129.67 314.349C128.308 311.631 129.67 304.848 134.424 303.488L146.654 300.099V166.362L129.672 165.001C128.311 158.885 131.703 150.068 141.221 149.383L191.501 145.994L260.804 251.898V158.212L243.135 156.184C241.778 148.707 247.206 143.278 254.001 142.605L300.894 139.875Z" fill="black"/>
</svg>
