<svg width="100" height="100" viewBox="0 0 100 100" fill="none" xmlns="http://www.w3.org/2000/svg">
<mask id="mask0_2571_905" style="mask-type:luminance" maskUnits="userSpaceOnUse" x="1" y="2" width="98" height="96">
<path d="M99 2H1V98H99V2Z" fill="white"/>
</mask>
<g mask="url(#mask0_2571_905)">
<path d="M42.4395 71.3848C29.8066 69.8535 20.9062 60.7617 20.9062 48.9902C20.9062 44.2051 22.6289 39.0371 25.5 35.5918C24.2559 32.4336 24.4473 25.7344 25.8828 22.959C29.7109 22.4805 34.8789 24.4902 37.9414 27.2656C41.5781 26.1172 45.4062 25.543 50.0957 25.543C54.7852 25.543 58.6133 26.1172 62.0586 27.1699C65.0254 24.4902 70.2891 22.4805 74.1172 22.959C75.457 25.543 75.6484 32.2422 74.4043 35.4961C77.4668 39.1328 79.0937 44.0137 79.0937 48.9902C79.0937 60.7617 70.1934 69.6621 57.3691 71.2891C60.623 73.3945 62.8242 77.9883 62.8242 83.252V93.2051C62.8242 96.0762 65.2168 97.7031 68.0879 96.5547C85.4102 89.9512 99 72.6289 99 51.1914C99 24.1074 76.9883 2 49.9043 2C22.8203 2 1 24.1074 1 51.1914C1 72.4375 14.4941 90.0469 32.6777 96.6504C35.2617 97.6074 37.75 95.8848 37.75 93.3008V85.6445C36.4102 86.2188 34.6875 86.6016 33.1562 86.6016C26.8398 86.6016 23.1074 83.1563 20.4277 76.7441C19.375 74.1602 18.2266 72.6289 16.0254 72.3418C14.877 72.2461 14.4941 71.7676 14.4941 71.1934C14.4941 70.0449 16.4082 69.1836 18.3223 69.1836C21.0977 69.1836 23.4902 70.9063 25.9785 74.4473C27.8926 77.2227 29.9023 78.4668 32.2949 78.4668C34.6875 78.4668 36.2187 77.6055 38.4199 75.4043C40.0469 73.7773 41.291 72.3418 42.4395 71.3848Z" fill="black"/>
</g>
</svg>
