<svg width="250" height="60" viewBox="0 0 250 60" fill="none" xmlns="http://www.w3.org/2000/svg">
<path d="M0 60V4.37086H21.8191C26.721 4.37086 30.9037 5.13907 34.367 6.6755C37.8303 8.21192 40.4945 10.4371 42.3593 13.351C44.2242 16.2649 45.1566 19.7351 45.1566 23.7616C45.1566 27.7881 44.2242 31.2583 42.3593 34.1722C40.4945 37.0331 37.8303 39.2583 34.367 40.8477C30.9037 42.3841 26.721 43.1523 21.8191 43.1523H4.39578L7.99233 39.4172V60H0ZM7.99233 40.2119L4.39578 36.2384H21.5793C26.6944 36.2384 30.5573 35.1523 33.1682 32.9801C35.8323 30.8079 37.1643 27.7351 37.1643 23.7616C37.1643 19.7881 35.8323 16.7152 33.1682 14.543C30.5573 12.3709 26.6944 11.2848 21.5793 11.2848H4.39578L7.99233 7.31126V40.2119Z" fill="#333333"/>
<path d="M53.149 60V17.8808H60.5019V29.3245L59.7826 26.4636C60.9548 23.5497 62.9263 21.3245 65.6969 19.7881C68.4676 18.2517 71.8777 17.4834 75.9271 17.4834V24.8742C75.6074 24.8212 75.2877 24.7947 74.968 24.7947C74.7016 24.7947 74.4352 24.7947 74.1688 24.7947C70.0661 24.7947 66.8158 26.0132 64.4181 28.4503C62.0205 30.8874 60.8216 34.4106 60.8216 39.0199V60H53.149Z" fill="#333333"/>
<path d="M105.978 60C101.716 60 97.9326 59.0728 94.6291 57.2185C91.3257 55.3642 88.7148 52.8212 86.7967 49.5894C84.8785 46.3046 83.9194 42.596 83.9194 38.4636C83.9194 34.2781 84.8785 30.5695 86.7967 27.3377C88.7148 24.106 91.3257 21.5894 94.6291 19.7881C97.9326 17.9338 101.716 17.0066 105.978 17.0066C110.188 17.0066 113.944 17.9338 117.247 19.7881C120.604 21.5894 123.215 24.106 125.08 27.3377C126.998 30.5166 127.957 34.2252 127.957 38.4636C127.957 42.649 126.998 46.3576 125.08 49.5894C123.215 52.8212 120.604 55.3642 117.247 57.2185C113.944 59.0728 110.188 60 105.978 60ZM105.978 53.3245C108.696 53.3245 111.12 52.7152 113.251 51.4967C115.436 50.2781 117.141 48.5563 118.366 46.3311C119.592 44.053 120.205 41.4305 120.205 38.4636C120.205 35.4437 119.592 32.8477 118.366 30.6755C117.141 28.4503 115.436 26.7285 113.251 25.5099C111.12 24.2914 108.696 23.6821 105.978 23.6821C103.261 23.6821 100.837 24.2914 98.7052 25.5099C96.574 26.7285 94.8689 28.4503 93.5901 30.6755C92.3114 32.8477 91.672 35.4437 91.672 38.4636C91.672 41.4305 92.3114 44.053 93.5901 46.3311C94.8689 48.5563 96.574 50.2781 98.7052 51.4967C100.837 52.7152 103.261 53.3245 105.978 53.3245Z" fill="#333333"/>
<path d="M143.143 60V14.1457C143.143 10.0132 144.341 6.72847 146.739 4.29139C149.19 1.80132 152.653 0.556289 157.129 0.556289C158.781 0.556289 160.353 0.76821 161.845 1.19205C163.39 1.56291 164.695 2.17218 165.761 3.01987L163.443 8.82119C162.644 8.18543 161.738 7.70861 160.726 7.39072C159.713 7.01986 158.648 6.83443 157.529 6.83443C155.291 6.83443 153.586 7.4702 152.414 8.74172C151.241 9.96026 150.655 11.7881 150.655 14.2252V19.8675L150.815 23.3642V60H143.143ZM135.949 24.1589V17.8808H162.964V24.1589H135.949Z" fill="#333333"/>
<path d="M175.192 8.50331C176.204 9.45695 177.456 9.93378 178.948 9.93378C180.493 9.93378 181.746 9.45695 182.705 8.50331C183.664 7.49669 184.143 6.27815 184.143 4.84768C184.143 3.4702 183.637 2.33112 182.625 1.43046C181.666 0.476821 180.44 0 178.948 0C177.456 0 176.204 0.476821 175.192 1.43046C174.233 2.38411 173.753 3.57616 173.753 5.00662C173.753 6.38411 174.233 7.54967 175.192 8.50331Z" fill="#509080"/>
<path d="M175.112 17.8808V60H182.785V17.8808H175.112Z" fill="#333333"/>
<path d="M192.136 60V1.03311H199.808V60H192.136Z" fill="#333333"/>
<path d="M230.579 60C226.05 60 222.053 59.0728 218.59 57.2185C215.18 55.3642 212.516 52.8212 210.598 49.5894C208.733 46.3576 207.801 42.649 207.801 38.4636C207.801 34.2781 208.706 30.5695 210.518 27.3377C212.383 24.106 214.914 21.5894 218.111 19.7881C221.361 17.9338 225.011 17.0066 229.06 17.0066C233.163 17.0066 236.786 17.9073 239.93 19.7086C243.073 21.5099 245.524 24.053 247.283 27.3377C249.094 30.5695 250 34.3576 250 38.702C250 39.0199 249.973 39.3907 249.92 39.8146C249.92 40.2384 249.893 40.6358 249.84 41.0066H213.795V35.5232H245.844L242.727 37.4305C242.78 34.7285 242.221 32.3179 241.049 30.1987C239.876 28.0795 238.251 26.4371 236.173 25.2715C234.149 24.053 231.777 23.4437 229.06 23.4437C226.396 23.4437 224.025 24.053 221.947 25.2715C219.869 26.4371 218.244 28.106 217.072 30.2781C215.899 32.3973 215.313 34.8344 215.313 37.5894V38.8609C215.313 41.6689 215.953 44.1854 217.231 46.4106C218.564 48.5828 220.402 50.2781 222.746 51.4967C225.091 52.7152 227.781 53.3245 230.818 53.3245C233.323 53.3245 235.587 52.9007 237.612 52.053C239.69 51.2053 241.501 49.9338 243.047 48.2384L247.283 53.1656C245.364 55.3907 242.967 57.0861 240.09 58.2517C237.266 59.4172 234.095 60 230.579 60Z" fill="#333333"/>
</svg>
