<svg width="116" height="56" viewBox="0 0 116 56" fill="none" xmlns="http://www.w3.org/2000/svg">
<path d="M3.78447 1.40159V22.0342C3.78447 22.7187 3.22443 23.2728 2.53261 23.2728C1.8408 23.2728 1.24781 22.7187 1.24781 22.0342V1.40159C1.24781 0.717091 1.8408 0.162975 2.53261 0.162975C3.22443 0.162975 3.78447 0.717091 3.78447 1.40159Z" fill="#333333"/>
<path d="M22.2957 10.0067C26.8748 10.6586 29.4115 13.1032 29.3126 16.6235C29.3126 19.4918 27.2042 23.501 20.6485 23.4032C15.7069 23.4032 13.3021 21.1542 12.6432 18.2206C12.4785 17.5361 13.2032 16.8516 13.8951 16.8516C14.6198 16.8516 15.0151 17.5035 15.3116 18.1554C16.1352 20.0133 17.7165 21.1216 20.6155 21.252C25.3594 21.4475 26.8089 18.6118 26.8089 16.6235C26.8089 15.1567 26.3148 13.1032 22.0321 12.4839C16.0693 11.669 12.6432 10.2674 12.5773 5.8671C12.5773 2.31425 15.3446 0.0651892 20.5826 0C23.284 0 25.9524 0.717091 27.9949 2.02089C28.6538 2.41203 28.9503 3.16172 28.7197 3.87881C28.522 4.46552 27.6984 4.98704 27.0725 4.5959C25.03 3.35729 23.3169 2.57501 20.8132 2.50982C17.42 2.34684 15.1798 3.45507 15.114 5.70413C15.114 8.05097 16.9259 9.25699 22.2957 10.0067Z" fill="#333333"/>
<path d="M38.8796 1.3038V21.9364C38.8796 22.6209 38.3196 23.1751 37.6278 23.1751C36.936 23.1751 36.3759 22.6209 36.3759 21.9364V1.3038C36.3759 0.619305 36.936 0.0651892 37.6278 0.0651892C38.3196 0.0651892 38.8796 0.619305 38.8796 1.3038ZM51.7276 0.162975C52.4195 0.162975 52.9465 0.717091 52.9465 1.36899V22.0668C52.9465 22.7187 52.4195 23.2728 51.7276 23.2728C51.0688 23.2728 50.5087 22.7187 50.5087 22.0668C50.5087 19.557 50.5087 13.9181 50.5087 12.5817C50.5087 12.4513 50.4099 12.3535 50.2452 12.3535C48.9933 12.3535 44.0518 12.3535 41.7128 12.3535C41.0539 12.3535 40.4939 11.7994 40.4939 11.1149C40.4939 10.463 41.0539 9.90889 41.7128 9.90889C44.0518 9.90889 48.9933 9.90889 50.2452 9.90889C50.4099 9.90889 50.5087 9.8111 50.5087 9.68072C50.5087 8.44211 50.5087 3.61805 50.5087 1.36899C50.5087 0.717091 51.0688 0.162975 51.7276 0.162975Z" fill="#333333"/>
<path d="M64.1659 1.40159V22.0342C64.1659 22.7187 63.6058 23.2728 62.914 23.2728C62.2222 23.2728 61.6292 22.7187 61.6292 22.0342V1.40159C61.6292 0.717091 62.2222 0.162975 62.914 0.162975C63.6058 0.162975 64.1659 0.717091 64.1659 1.40159Z" fill="#333333"/>
<path d="M77.0437 1.40159V22.0342C77.0437 22.7187 76.4837 23.2728 75.7919 23.2728C75.1001 23.2728 74.5071 22.7187 74.5071 22.0342V1.40159C74.5071 0.717091 75.1001 0.162975 75.7919 0.162975C76.4837 0.162975 77.0437 0.717091 77.0437 1.40159Z" fill="#333333"/>
<path d="M86.5943 10.8215H96.7409C97.3998 10.8215 97.9598 11.3757 97.9598 12.0602C97.9598 12.7121 97.3998 13.2662 96.7409 13.2662H86.5943C85.9354 13.2662 85.3754 12.7121 85.3754 12.0602C85.3754 11.3757 85.9354 10.8215 86.5943 10.8215Z" fill="#333333"/>
<path d="M18.049 32.8558C18.7079 32.8558 19.1032 33.5729 18.7079 34.0944C16.6654 36.9953 11.7239 43.9055 10.9332 45.0463C10.8344 45.1441 10.8014 45.2419 10.8014 45.3723C10.8014 46.5131 10.8014 52.152 10.8014 54.6618C10.8014 55.3463 10.2414 55.9005 9.54959 55.9005C8.85778 55.9005 8.29773 55.3463 8.29773 54.6618V45.6004C8.29773 44.753 8.56128 44.0685 9.02249 43.384L16.0065 33.6055C16.5666 32.8232 17.0607 32.8558 18.049 32.8558ZM2.86205 33.5729L8.26479 40.9393C8.726 41.5587 8.69306 42.3735 8.1989 42.9276C7.77064 43.4166 6.97999 43.384 6.58467 42.8625L0.127733 34.0618C-0.234646 33.5403 0.226564 32.6928 0.852491 32.6928C1.80785 32.6928 2.30201 32.7906 2.86205 33.5729Z" fill="#333333"/>
<path d="M38.7144 47.0672C38.5826 53.521 34.0035 56.0308 30.182 55.9331C24.944 55.8353 21.8473 52.2824 21.9132 46.4479V34.0292C21.9132 33.3447 22.4732 32.8232 23.1321 32.8232C23.8239 32.8232 24.384 33.3447 24.384 34.0292V46.4479C24.384 49.8378 25.9323 53.521 30.2809 53.5536C33.9047 53.6514 36.013 51.272 36.2437 46.9042V34.0292C36.2437 33.3447 36.8037 32.8232 37.4955 32.8232C38.1544 32.8232 38.7144 33.3447 38.7144 34.0292V47.0672Z" fill="#333333"/>
<path d="M51.3128 42.6017C55.8919 43.2536 58.4286 45.6982 58.3297 49.2185C58.3297 52.0868 56.2213 56.096 49.6656 55.9982C44.724 55.9982 42.3192 53.7492 41.6603 50.8156C41.4956 50.1311 42.2203 49.4466 42.9121 49.4466C43.6369 49.4466 44.0322 50.0985 44.3287 50.7504C45.1523 52.6084 46.7336 53.7166 49.6326 53.847C54.3765 54.0425 55.826 51.2068 55.826 49.2185C55.826 47.7517 55.3319 45.6982 51.0492 45.0789C45.0864 44.264 41.6603 42.8625 41.5944 38.4621C41.5944 34.9093 44.3617 32.6602 49.5997 32.595C52.3011 32.595 54.9695 33.3121 57.012 34.6159C57.6709 35.0071 57.9674 35.7567 57.7367 36.4738C57.5391 37.0605 56.7155 37.5821 56.0896 37.1909C54.0471 35.9523 52.334 35.17 49.8303 35.1048C46.4371 34.9419 44.1969 36.0501 44.1311 38.2991C44.1311 40.646 45.943 41.852 51.3128 42.6017Z" fill="#333333"/>
<path d="M77.7139 47.0672C77.5821 53.521 73.003 56.0308 69.1815 55.9331C63.9435 55.8353 60.8468 52.2824 60.9127 46.4479V34.0292C60.9127 33.3447 61.4727 32.8232 62.1316 32.8232C62.8234 32.8232 63.3835 33.3447 63.3835 34.0292V46.4479C63.3835 49.8378 64.9318 53.521 69.2804 53.5536C72.9042 53.6514 75.0126 51.272 75.2432 46.9042V34.0292C75.2432 33.3447 75.8032 32.8232 76.495 32.8232C77.1539 32.8232 77.7139 33.3447 77.7139 34.0292V47.0672Z" fill="#333333"/>
<path d="M97.5928 53.847C98.2846 54.5315 97.6916 55.5419 97.1645 55.7375C96.2092 56.096 95.7479 55.7701 95.0561 55.0204L85.7331 44.59C85.1072 43.9381 85.0742 42.8951 85.7331 42.2106L94.0349 33.7358C94.4631 33.3121 95.0891 33.0513 95.8797 33.3447C96.4727 33.801 96.6374 34.6485 96.275 35.0722C93.8702 37.6147 89.1263 42.0476 88.0392 43.221C87.9403 43.3188 87.9403 43.4818 88.0392 43.5795C89.2251 44.8182 94.9902 51.1416 97.5928 53.847ZM83.7235 33.9966V54.6293C83.7235 55.3138 83.1635 55.8679 82.4388 55.8679C81.7469 55.8679 81.1869 55.3138 81.1869 54.6293V33.9966C81.1869 33.3121 81.7469 32.758 82.4388 32.758C83.1635 32.758 83.7235 33.3121 83.7235 33.9966Z" fill="#333333"/>
<path d="M116 54.4663C116 55.1182 115.44 55.6723 114.781 55.6723H102.724C101.834 55.6723 101.077 54.9552 101.077 54.0425V34.4855C101.077 33.5729 101.834 32.8558 102.724 32.8558H114.781C115.44 32.8558 116 33.3773 116 34.0618C116 34.7137 115.44 35.2678 114.781 35.2678C111.981 35.2678 105.359 35.2678 103.877 35.2678C103.745 35.2678 103.646 35.3656 103.646 35.5286C103.646 37.6147 103.646 50.9134 103.646 52.9995C103.646 53.1299 103.745 53.2603 103.877 53.2603C105.359 53.2603 111.981 53.2603 114.781 53.2603C115.44 53.2603 116 53.7818 116 54.4663ZM106.249 43.9707C106.249 43.2862 106.809 42.7647 107.468 42.7647H113.99C114.649 42.7647 115.209 43.2862 115.209 43.9707C115.209 44.6226 114.649 45.1767 113.99 45.1767H107.468C106.809 45.1767 106.249 44.6226 106.249 43.9707Z" fill="#333333"/>
</svg>
