<svg width="1000" height="1000" viewBox="0 0 1000 1000" fill="none" xmlns="http://www.w3.org/2000/svg">
<g clip-path="url(#clip0_2841_356)">
<path d="M226.603 256.025C249.998 247.355 252.628 224.711 256.883 203.582C261.88 178.767 286.747 158.275 311.296 155.169C343.054 151.15 345.881 131.978 364.051 113.662C389.611 87.8985 443.181 80.5235 475.094 97.4801C480.047 100.132 494.692 112.999 494.165 96.4845C495.537 99.8819 499.717 99.0792 503.076 99.0582C502.71 102.204 502.876 105.869 506.289 107.547C511.885 110.296 517.339 103.374 522.212 101.394C557.607 87.0148 606.909 94.9854 634.038 122.606C650.698 139.904 650.278 154.425 667.295 169.835C689.37 188.076 713.462 177.406 730.4 208.225C733.53 213.989 735.703 220.225 736.831 226.688C738.037 233.486 737.964 241.497 738.755 248.499C740.62 265.051 746.25 282.162 761.65 290.703C762.3 296.618 763.32 303.08 763.848 308.867C758.755 304.525 749.897 298.132 744.087 305.494C737.578 313.732 755.186 319.002 756.06 326.166C758.384 345.147 746.245 357.576 760.068 375.34C757.563 381.94 752.812 392.886 749.238 398.833C748.965 395.91 748.726 389.461 745.938 387.977C732.036 380.578 735.054 399.394 731.982 404.171C724.043 416.506 712.954 419.124 712.842 435.816C708.223 440.937 700.137 449.243 694.512 453.217C695.771 449.365 698.32 439.322 692.114 437.732C684.976 435.9 680.444 446.433 678.018 451.326C675.605 456.151 675.083 460.466 675.928 465.708C669.517 470.615 663.716 474.871 656.367 478.453C661.616 460.176 642.178 461.586 638.818 481.869C638.423 484.343 638.442 486.866 638.872 489.336C631.104 493.223 631.934 491.24 625.415 493.242C621.655 500.4 617.227 508.32 609.014 510.977C603.003 512.915 598.799 510.107 596.621 504.561C591.758 503.96 588.618 502.129 584.121 500.503C583.779 507.905 583.418 514.36 583.979 521.787C597.949 524.077 612.583 527.31 623.662 536.685C641.089 551.431 653.437 572.359 668.242 589.624C668.96 590.459 681.128 595.772 682.847 596.538C692.437 600.767 701.997 605.078 711.518 609.463C765.85 634.649 819.907 662.109 855.029 712.163C880.845 748.95 896.006 789.844 910.093 832.051C928.618 887.549 941.963 943.496 956.265 1000H941.46H724.595H710.396H439.813H425.292H256.263H242.006H146.177H131.222C146.028 945.376 162.671 891.27 181.123 837.769C190.515 810.977 200.956 784.565 212.422 758.594C241.394 693.276 268.818 663.477 331.656 629.922C350.289 620.039 369.147 610.586 388.218 601.572C402.766 576.704 417.262 559.214 446.373 551.231L446.087 542.046C420.481 541.162 395.546 533.628 373.739 520.181C344.625 502.363 323.881 473.604 316.162 440.356C306.006 437.193 304.975 435.868 296.039 431.672C294.543 436.071 290.066 442.302 285.721 444.065C283.66 444.913 281.336 444.846 279.328 443.88C273.355 440.937 275.164 436.518 278.208 432.256C281.353 427.855 283.549 426.009 282.233 420.361C278.34 417.997 264.433 405.55 262.96 404.973C263.11 404.295 263.249 403.614 263.375 402.93C265.441 391.609 260.051 388.222 257.685 378.18C257.031 375.403 259.822 361.429 252.798 361.77C243.938 362.199 242.783 371.097 242.687 378.15C237.678 371.907 233.349 365.149 229.773 357.989C243.165 332.795 219.744 321.925 224.11 300.278C227.659 282.684 246.383 280.774 248.599 272.403C249.283 269.817 248.043 268.023 246.782 265.874C238.757 260.491 231.137 265.953 224.38 271.049C224.656 267.895 227.044 257.795 226.603 256.025Z" fill="black"/>
<path d="M585.679 537.334C593.921 538.76 601.372 540.449 608.726 544.658C624.233 553.52 643.843 582.632 655.356 597.671C638.032 634.243 611.416 673.481 584.551 703.75C578.35 710.737 569.653 719.731 561.675 724.292C544.136 708.183 530.117 686.562 511.934 670.654C505.576 662.998 495.234 673.012 500.464 678.491C504.38 682.475 514.8 694.614 517.949 697.407C525.635 704.233 552.031 742.431 562.407 738.974C599.224 726.709 655.049 631.621 667.163 605.625C712.593 625.923 756.788 646.401 796.851 676.294C836.651 705.986 862.188 751.689 879.341 797.407C904.009 863.135 921.265 931.899 938.082 1000H724.595H710.396H443.191C443.86 982.759 446.031 962.344 447.589 945.029C450.817 908.359 454.601 871.733 458.939 835.176C463.493 794.326 469.073 753.603 475.676 713.037C478.233 697.407 481.747 673.73 485.588 658.633C489.777 654.746 492.925 650.869 497.813 647.754L520.835 633.1C548.374 615.346 574.312 595.19 596.265 570.742C599.609 567.016 603.247 562.051 599.648 557.007C597.402 553.862 591.509 555.952 588.814 554.634C587.134 551.474 585.947 540.869 585.679 537.334Z" fill="#39695D"/>
<path d="M708.735 1000C708.789 990.757 707.856 984.922 707.266 975.923C706.685 965.478 706.177 955.034 705.747 944.585C705.493 939.414 704.78 927.724 705.664 923.032C706.113 920.63 707.275 918.418 708.994 916.68C715.513 910.117 723.266 913.007 725.44 920.947C726.734 925.676 727.022 972.964 728.975 1000H708.735Z" fill="black"/>
<path d="M149.188 1000C151.136 992.837 154.252 985.742 156.398 978.545C160.056 966.279 163.766 954.023 167.541 941.787C171.295 929.619 176.04 917.759 180.223 905.737C183.211 897.148 185.302 888.257 188.32 879.678C203.003 841.025 214.189 796.988 233.356 760.162C236.561 754.005 239.022 747.442 242.271 741.3C249.57 728.438 257.324 715.372 266.057 703.438C280.363 685.679 300.193 666.823 319.721 655.177C327.406 650.597 335.574 646.783 342.956 641.583C350.108 636.544 371.428 626.397 379.223 622.466C379.179 641.255 374.551 709.482 387.603 722.392C390.605 725.361 394.467 727.07 398.719 726.88C402.198 726.724 404.951 725.522 407.76 723.53C412.748 719.995 416.669 714.81 420.867 710.4C431.818 698.906 447.5 676.5 465 675C462.5 701.5 457.91 724.868 454.719 751.035L438.66 877.798C436.333 897.671 431.96 932.5 431.445 938.169C431.052 942.5 426.937 980.161 425.741 1000H261.712H239.696H149.188Z" fill="#39695D"/>
<path d="M246.453 1000C248.545 977.344 250.372 954.863 253.629 932.329C254.311 927.612 255.221 920.608 255.912 918.074C258.446 908.784 259.922 905.62 265.576 906.225C270.862 906.792 275.72 913.388 275.081 919.131C272.725 940.298 269.869 961.504 267.178 982.646C266.447 988.388 265.963 994.297 265.09 1000H246.453Z" fill="black"/>
<path d="M472.172 330.211C514.477 326.889 523.843 395.256 479.052 403.108C471.58 403.686 464.132 401.725 457.913 397.543C432.123 380.189 439.729 335.877 472.172 330.211Z" fill="white"/>
<path d="M348.102 330.22C390.382 327.177 398.637 396.183 354.61 403.166C311.005 405.789 304.437 337.55 348.102 330.22Z" fill="white"/>
<path d="M425.141 370.925C420.203 368.92 416.941 367.937 411.373 368.298C407.797 368.836 405.311 369.398 401.899 370.742C399.869 386.957 395.016 400.236 381.669 410.695C371.803 418.436 359.259 421.928 346.812 420.399C340.042 419.563 333.96 417.286 327.985 414.077C329.251 425.89 330.868 438.058 334.869 449.318C350.94 494.536 397.06 523.359 443.924 525.898C451.538 526.313 457.113 524.985 461.337 531.86C462.438 547.378 462.776 563.1 463.55 578.647C463.934 586.367 464.103 592.231 458.776 598.335C456.85 600.512 454.901 602.676 452.929 604.814C460.776 617.49 469.217 630.884 477.895 643.022C491.729 633.237 506.04 624.609 520.205 615.293C541.675 601.176 558.394 587.651 576.616 569.697L574.155 561.66C569.941 543.984 562.559 497.441 572.271 482.084C575.166 477.502 578.613 473.269 581.499 468.675C583.711 465.161 585.327 460.957 587.979 457.777C589.087 456.447 590.566 455.081 592.295 454.659C596.606 453.608 602.754 456.346 607.197 456.782C624.59 458.485 641.382 446.318 650.527 432.463C656.44 423.501 661.558 409.244 659.287 398.441C657.822 391.459 656.135 387.276 652.392 383.249C648.649 379.223 646.96 377.053 642.737 375.479C636.824 373.274 634.291 373.96 632.665 374.014C625.845 375.479 623.711 376.352 621.49 378.254C619.371 380.067 617.399 382.601 615.532 385.218L608.953 392.736C606.419 396.115 606.419 397.804 601.504 402.726C596.589 407.647 587.983 412.831 577.075 402.902C574.541 400.596 573.378 397.362 573.247 393.985C573.061 389.139 573.911 384.468 575.801 380.172C576.826 377.853 577.471 375.094 578.018 372.615C560.894 371.242 543.726 370.498 526.543 370.384C523.95 399.847 502.949 423.208 472.006 420.328C458.272 418.962 445.665 412.123 437.031 401.355C430.423 393.199 425.444 381.477 425.141 370.925Z" fill="white"/>
<path d="M437.699 307.561C441.209 312.775 443.677 316.549 447.514 321.66C436.011 330.667 430.539 339.663 426.473 353.579C416.446 350.417 410.293 350.278 400.355 353.61C396.564 338.015 389.646 329.068 377.061 319.724C383.724 316.068 386.906 313.949 391.775 308.155C394.117 313.56 394.966 315.494 399.016 319.676C399.481 320.518 400.067 321.288 400.756 321.959C402.731 323.916 406.466 325 409.184 324.799C421.514 323.891 429.951 316.094 437.699 307.561Z" fill="white"/>
<path d="M519.028 325.404C525.708 323.904 528.018 322.296 533.14 318.205C533.833 331.837 536.152 341.344 544.272 352.985C537.827 352.874 531.382 352.853 524.941 352.924C522.48 343.071 518.486 335.119 511.396 327.724C515.039 327.434 516.025 327.388 519.028 325.404Z" fill="white"/>
<path d="M469.051 226.464C470.219 228.507 471.897 234.1 472.829 236.432C479.386 252.84 473.078 260.047 471.441 275.642C469.933 290.002 479.191 303.166 488.379 313.592C478.747 311.599 474.137 311.23 464.678 313.408L459.362 315.097C450.453 305.715 448.52 298.524 444.028 287.2C435.01 264.47 443.428 261.109 456.619 244.521C461.189 238.806 465.343 232.772 469.051 226.464Z" fill="white"/>
<path d="M226.603 256.025C249.998 247.355 252.628 224.711 256.883 203.582C261.88 178.767 286.747 158.275 311.296 155.169C343.054 151.151 345.881 131.978 364.051 113.662C389.611 87.8985 443.181 80.5235 475.094 97.4801C480.047 100.132 494.692 112.999 494.165 96.4845C495.537 99.8819 499.717 99.0792 503.076 99.0582C502.71 102.204 502.876 105.869 506.289 107.547C511.885 110.296 517.339 103.374 522.212 101.394C557.607 87.0148 606.909 94.9854 634.038 122.606C650.698 139.904 650.278 154.425 667.295 169.835C689.37 188.076 713.462 177.406 730.4 208.225C733.53 213.989 735.703 220.225 736.831 226.688C738.037 233.486 737.964 241.497 738.755 248.499C740.62 265.051 746.25 282.162 761.65 290.703C762.3 296.618 763.32 303.08 763.848 308.867C758.755 304.525 749.897 298.132 744.087 305.494C737.578 313.732 755.186 319.002 756.06 326.166C758.384 345.147 746.245 357.576 760.068 375.34C757.563 381.94 752.812 392.886 749.238 398.833C748.965 395.91 748.726 389.461 745.938 387.977C732.036 380.578 735.054 399.394 731.982 404.171C724.043 416.506 712.954 419.124 712.842 435.816C708.223 440.937 700.137 449.243 694.512 453.217C695.772 449.365 698.32 439.322 692.114 437.732C684.976 435.901 680.444 446.433 678.018 451.326C675.606 456.152 675.083 460.466 675.928 465.708C669.517 470.615 663.716 474.871 656.367 478.453C661.616 460.176 642.178 461.587 638.818 481.869C638.423 484.343 638.442 486.866 638.872 489.336C631.104 493.223 631.934 491.24 625.415 493.242C621.655 500.401 617.227 508.32 609.014 510.977C603.003 512.915 598.799 510.108 596.621 504.561C591.758 503.96 588.618 502.129 584.121 500.503C584.609 498.755 584.634 493.482 585.498 491.89C589.277 484.94 594.453 477.631 598.584 470.714C620.352 475.511 636.934 470.141 653.047 454.725C673.457 435.195 685.542 396.852 662.759 374.504C652.983 364.914 642.524 361.726 629.067 361.801C628.936 353.234 627.534 336.149 618.876 346.966C614.865 353.885 615.688 362.929 615.42 365.519C612.837 367.692 611.152 369.36 609.478 372.225C605.542 378.957 594.756 399.304 586.035 398.767C583.73 394.773 592.607 381.932 593.618 374.56C596.255 360.93 586.939 349.396 583.096 336.973C581.274 331.087 584.224 321.386 578.521 317.776C575.791 316.048 571.035 316.538 570.078 320.246C566.987 332.214 571.05 343.266 575.898 354.039C572.271 353.996 568.648 353.87 565.024 353.66C543.272 337.266 550.2 328.799 544.028 305.209C541.719 296.382 529.297 287.352 527.48 277.249C526.357 271.01 526.148 265.139 526.143 258.804C526.152 254.497 524.131 250.255 519.141 250.598C512.378 251.279 513.384 260.109 513.125 264.231C512.002 282.203 519.976 293.164 529.727 307.02C531.689 309.812 532.632 314.559 533.14 318.205C528.018 322.296 525.708 323.904 519.028 325.404C519.619 323.59 520.112 321.671 519.565 319.705C518.335 315.285 510.908 313.906 507.197 311.371C495.22 303.19 483.048 288.065 486.038 272.603C487.547 264.799 490.161 258.318 489.946 250.435C489.614 238.403 482.953 228.496 480.258 216.944C478.913 211.907 480.019 206.517 479.035 201.483C478.504 198.773 474.143 196.144 471.616 197.467C468.143 199.287 466.663 201.093 464.447 204.354C462.157 207.725 459.714 212.452 458.609 216.245C455.717 224.551 448.705 232.623 443.153 239.338C437.953 245.627 432.606 250.632 429.129 258.067C422.846 271.506 427.568 285.568 432.311 298.538C428.176 304.446 418.193 313.965 411.563 316.507C406.06 315.864 400.531 312.607 399.016 319.676C394.966 315.494 394.117 313.56 391.775 308.155C398.93 298.408 406.642 275.671 397.288 263.109C395 260.036 389.537 265.114 387.741 267.677C386.984 278.704 389.096 288.366 382.156 298.244C377.269 305.2 375.997 306.619 369.219 311.005C365.63 312.201 364.833 312.796 360.129 312.935L358.233 312.796C345.536 309.702 335.422 314.681 324.687 320.029C324.284 318.759 324.835 317.098 325.485 316.066C331.433 306.81 339.28 300.203 343.169 289.526C348.264 275.922 340.738 261.513 347.125 248.183C348.778 244.732 354.105 239.275 357.158 236.875C364.782 230.884 359.318 221.331 350.764 225.379C343.144 228.984 336.13 238.845 332.981 246.56C327.954 258.206 332.493 271.335 330.793 283.084C328.543 295.113 317.073 302.019 312.448 312.735C309.48 319.609 310.978 326.89 309.092 334.149C306.723 343.264 301.704 347.169 295.083 353.177C291.818 353.557 288.704 353.931 286.991 356.991C279.241 370.838 293.046 370.661 301.044 370.456C301.877 382.348 305.24 390.202 311.683 400.039C312.375 414.084 313.041 426.588 316.162 440.356C306.006 437.193 304.975 435.868 296.039 431.672C294.543 436.071 290.066 442.302 285.721 444.065C283.66 444.913 281.336 444.846 279.328 443.88C273.355 440.937 275.164 436.518 278.208 432.256C281.353 427.855 283.549 426.009 282.233 420.361C278.34 417.997 264.433 405.55 262.96 404.973C263.11 404.295 263.249 403.614 263.375 402.93C265.441 391.609 260.051 388.222 257.685 378.18C257.031 375.403 259.822 361.429 252.798 361.77C243.938 362.199 242.783 371.097 242.687 378.15C237.678 371.907 233.349 365.149 229.773 357.989C243.165 332.795 219.744 321.925 224.11 300.278C227.659 282.684 246.383 280.774 248.599 272.403C249.283 269.817 248.043 268.023 246.782 265.874C238.757 260.491 231.137 265.953 224.38 271.049C224.656 267.895 227.044 257.795 226.603 256.025Z" fill="#514234"/>
<path d="M282.233 420.361C280.104 413.744 273.491 400.755 283.292 397.382C288.32 395.652 290.768 402.323 291.998 405.762C294.952 414.021 299.223 422.714 296.039 431.672C294.543 436.071 290.067 442.302 285.721 444.065C283.66 444.913 281.336 444.846 279.328 443.88C273.356 440.937 275.164 436.518 278.208 432.256C281.353 427.855 283.549 426.009 282.233 420.361Z" fill="black"/>
<path d="M596.621 504.561C597.798 494.17 606.006 500.176 610.391 490.44C613.408 483.745 621.221 477.364 625.933 486.783C626.958 488.833 626.196 491.279 625.415 493.242C621.655 500.401 617.227 508.32 609.014 510.977C603.003 512.915 598.799 510.108 596.621 504.561Z" fill="black"/>
<path d="M511.768 151.871L512.173 151.873C513.34 151.869 514.658 151.897 515.772 152.254C532.739 157.708 546.153 169.903 550.322 187.578C552.173 195.365 552.334 203.633 556.226 210.824C562.7 222.12 573.999 226.667 580.615 238.367C587.603 250.71 582.744 259.973 586.367 272.469C588.379 279.393 604.961 287.174 591.563 293.38C589.048 292.856 584.859 289.996 582.891 288.354C566.948 275.043 574.478 261.856 570.298 246.597C567.7 237.109 552.622 230.677 546.153 219.76C536.524 203.506 541.358 191.468 530.488 176.888C524.946 167.955 513.789 167.801 507.149 160.998C503.457 157.214 508.74 153.307 511.768 151.871Z" fill="black"/>
<path d="M444.015 147.542C454.58 146.151 454.334 158.383 449.758 159.708C436.002 163.694 427.182 167.441 416.973 177.864C411.555 183.388 407.222 189.88 404.198 197.002C398.85 209.828 400.401 216.3 386.795 224.599C383.441 225.905 379.892 225.045 378.642 221.387C377.63 218.427 381.665 214.191 383.604 212.3C389.077 207.244 388.594 199.593 391.268 193.187C400.68 170.636 420.339 153.09 444.015 147.542Z" fill="black"/>
<path d="M621.157 232.908C621.616 232.914 623.477 232.967 623.775 233.056C630.801 235.877 638.345 254.788 638.882 261.353C639.81 272.721 637.041 277.955 645.493 287.525C650.059 294.279 648.833 303.149 650.44 310.979C652.31 320.084 665.723 328.221 654.78 334.55C650.659 334.246 647.974 332.282 645.459 328.974C640.298 322.186 637.026 314.189 636.768 305.614C636.675 302.649 636.377 298.86 635.396 296.016C633.213 290.65 628.184 285.772 627.363 279.666C626.314 272.722 627.686 265.602 625.479 258.813C624.419 255.111 622.344 251.861 620.835 248.37C618.032 241.891 613.608 237.839 621.157 232.908Z" fill="black"/>
<path d="M288.864 280.797C291.544 280.984 294.859 282.432 295.751 285.096C298.764 294.093 284.302 296.305 281.257 303.813C276.932 314.478 284.282 323.765 278.707 334.388C275.929 340.056 271.476 344.576 265.778 346.859C264.869 346.757 263.638 346.64 262.815 346.219C252.635 340.735 262.698 334.096 266.227 328.603C268.57 324.721 266.512 319.942 265.867 315.899C263.155 298.915 273.729 286.57 288.864 280.797Z" fill="black"/>
<path d="M669.024 235.369C679.59 234.697 690.733 253.065 692.827 262.366C694.082 268.38 692.642 276.246 695.239 281.951C698.306 288.687 713.013 292.612 702.383 301.039C697.446 301.84 693.257 297.969 689.668 295.096C675.933 284.088 684.57 268.21 676.528 254.753C672.378 247.814 659.351 243.128 669.024 235.369Z" fill="black"/>
<path d="M309.777 216.322C319.012 215.795 320.444 223.932 313.441 229.207C300.367 239.057 307.892 255.897 293.921 265.842C281.158 268.349 288.626 255.267 289.692 250.536C293.035 235.702 295.638 224.256 309.777 216.322Z" fill="black"/>
<path d="M696.328 323.752C707.095 322.903 712.319 336.946 711.44 345.796C710.742 352.899 709.092 360.259 708.457 367.441C708.267 369.645 705.972 371.299 704.272 372.335C688.242 372.717 698.687 349.741 697.598 342.285C696.558 335.166 685.171 330.628 696.328 323.752Z" fill="black"/>
<path d="M694.902 381.746C704.936 381.668 706.382 393.458 705.517 401.141C704.614 409.205 699.658 414.4 693.535 418.951C691.577 419.054 687.397 418.57 686.733 416.434C684.717 409.97 691.684 404.126 693.496 397.473C692.285 390.091 687.339 387.322 694.902 381.746Z" fill="black"/>
<path d="M603.115 177.658C612.69 177.34 613.55 188.35 618.696 193.771C623.139 198.449 632.285 202.783 622.514 209.047C614.316 209.113 607.861 200.163 603.984 193.842C599.961 187.284 595.776 183.292 603.115 177.658Z" fill="black"/>
<path d="M503.076 99.0581C506.831 92.0083 520.024 86.2431 527.378 84.0727C556.108 75.5937 594.834 80.1367 621.201 94.2993C640.649 104.747 653.276 117.861 662.905 137.445C666.211 144.169 670.708 151.979 676.108 157.062C684.399 164.858 695.727 166.923 706.489 169.92C727.192 175.688 743.491 193.549 749.619 214.089C751.157 219.398 752.212 224.835 752.778 230.333C754.36 246.022 753.164 268.042 769.756 276.848C778.105 281.281 786.665 281.553 794.214 288.834C802.495 296.818 804.785 310.446 802.461 321.386C801.201 324.784 795.635 326.626 792.983 324.542C789.487 321.796 789.59 315.036 789.16 310.823C787.622 295.871 772.715 296.442 761.65 290.703C746.25 282.162 740.62 265.051 738.755 248.499C737.964 241.497 738.037 233.486 736.831 226.687C735.703 220.225 733.53 213.989 730.4 208.225C713.462 177.406 689.37 188.076 667.295 169.834C650.278 154.425 650.698 139.904 634.038 122.605C606.909 94.9853 557.607 87.0146 522.212 101.394C517.339 103.373 511.885 110.295 506.289 107.547C502.876 105.869 502.71 102.204 503.076 99.0581Z" fill="black"/>
<path d="M226.602 256.025C215.251 260.11 203.826 258.964 193.526 264.694C190.094 266.903 188.195 273.452 187.849 277.485C186.989 287.492 177.74 290.151 173.768 281.092C172.252 274.988 173.941 266.321 176.706 261.187C185.419 245.005 202.141 246.428 217.367 242.684C236.215 238.051 238.443 217.255 241.689 201.515C243.061 194.865 246.251 186.758 249.543 180.591C259.945 161.404 277.909 147.451 299.074 142.121C309.298 139.501 318.581 138.239 327.649 132.282C336.132 126.709 338.203 120.126 343.644 112.875C355.783 96.697 378.274 84.1882 397.349 78.5178C424.761 70.3693 457.142 71.3762 482.807 84.6774C487.669 87.197 492.563 91.0944 494.165 96.4846C494.692 112.999 480.047 100.133 475.094 97.4802C443.181 80.5236 389.611 87.8986 364.051 113.662C345.881 131.978 343.053 151.151 311.296 155.169C286.747 158.275 261.88 178.767 256.883 203.582C252.628 224.711 249.997 247.355 226.602 256.025Z" fill="black"/>
<path d="M224.38 271.049C231.137 265.952 238.757 260.491 246.782 265.874C248.043 268.023 249.283 269.817 248.598 272.403C246.383 280.774 227.659 282.684 224.11 300.278C219.744 321.925 243.164 332.795 229.773 357.989C221.492 370.071 210.078 374.939 195.67 374.41C192.067 372.336 188.915 369.376 189.698 364.874C191.553 354.202 205.418 359.557 212.267 353.013C223.694 342.095 214.312 333.366 209.91 322.002C207.505 315.653 206.112 308.579 206.756 302.108C208.073 288.865 214.487 279.305 224.38 271.049Z" fill="black"/>
<path d="M760.068 375.34C746.245 357.576 758.384 345.146 756.06 326.165C755.186 319.002 737.578 313.732 744.087 305.494C749.898 298.132 758.755 304.525 763.848 308.867C770.405 316.738 773.594 323.962 772.691 334.768C771.792 344.81 765.879 355.57 772.315 364.95C778.364 373.762 794.722 365.485 794.443 378.469C794.282 386.017 785.962 387.164 780.068 386.27C771.372 384.951 765.82 382.027 760.068 375.34Z" fill="black"/>
<path d="M712.842 435.816C712.954 419.124 724.043 416.506 731.982 404.171C735.054 399.394 732.036 380.578 745.938 387.977C748.726 389.461 748.965 395.91 749.238 398.833C745.244 422.085 732.1 419.83 728.267 434.957L728.462 435.619C730.591 442.534 733.711 441.348 737.168 446.647C738.921 449.331 737.671 456.612 733.496 456.981C721.177 459.043 714.258 445.482 712.842 435.816Z" fill="black"/>
<path d="M242.686 378.15C242.783 371.097 243.938 362.199 252.798 361.77C259.822 361.429 257.031 375.404 257.685 378.18C260.051 388.222 265.441 391.609 263.375 402.93C263.249 403.614 263.11 404.295 262.96 404.973C260.849 412.556 254.469 417.131 247.411 420.165C242.3 422.362 234.141 421.376 232.581 415.157C231.633 407.379 245.209 404.705 247.355 400.234C249.954 394.821 243.841 384.516 242.686 378.15Z" fill="black"/>
<path d="M675.928 465.708C675.083 460.466 675.605 456.152 678.017 451.326C680.444 446.433 684.975 435.901 692.114 437.732C698.32 439.322 695.771 449.365 694.512 453.217L694.111 453.822C685.918 466.354 702.099 467.238 697.344 475.034C689.18 488.408 678.887 473.483 675.928 465.708Z" fill="black"/>
<path d="M638.872 489.336C638.442 486.866 638.423 484.343 638.818 481.869C642.178 461.586 661.616 460.176 656.367 478.453C655.244 480.11 653.979 482.658 654.707 484.619C656.606 489.751 665.43 489.585 662.046 497.593C659.727 503.076 650.884 502.153 646.772 499.624C642.588 497.212 640.596 493.486 638.872 489.336Z" fill="black"/>
<path d="M447.677 566L447.99 566.085C449.229 567.71 449.055 582.835 449.074 585.7C446.056 589.184 438.587 597.164 437.209 600.795C435.36 605.67 446.426 621.264 449.159 625.505C455.912 636.05 461.82 644.495 468.881 654.835C468.38 658.105 467.732 661.264 467 664.5C464.5 664.5 462 664.5 457.193 665.754C440.895 670.003 424.758 687.545 416.223 695.469C410.973 700.669 404.52 707.725 399.241 712.96C398.861 712.155 398.511 711.334 398.193 710.5C390.05 689.184 392.161 653.63 395.263 631.084C397.317 616.154 399.423 609.874 408.001 597.645C419.439 581.334 428.954 572.85 447.677 566Z" fill="#39695D"/>
</g>
<defs>
<clipPath id="clip0_2841_356">
<rect width="1000" height="1000" fill="white"/>
</clipPath>
</defs>
</svg>
